<svg id="Layer_1" data-name="Layer 1" xmlns="http://www.w3.org/2000/svg" viewBox="0 0 512 512"><defs><style>.cls-1{fill:#323232;}.cls-2{fill:#e3e3e3;}</style></defs><title>astronaut</title><path class="cls-1" d="M0,0H512V512H0Z"/><path class="cls-2" d="M258.8,22.3c16,0,32.1,3.7,47.8,10.1A116.68,116.68,0,0,1,311.4,56a339.23,339.23,0,0,1,1.8,36.5,536.57,536.57,0,0,0-109,0c.2-12,.6-24.8,1.8-36.5a129.2,129.2,0,0,1,4.8-23.5C226.7,26,242.9,22.3,258.8,22.3ZM159,41.5a238.16,238.16,0,0,0-26.1,23.1A39.94,39.94,0,0,0,124,47.1ZM327.7,43c34.4,20,64.6,52.3,81.9,85.7,32.8,63,39.4,155.7.6,213-29.1,43-96,59.6-151.3,59.6s-122.2-16.6-151.3-59.6c-38.8-57.4-32.3-150.1.6-213,17.3-33.4,47.5-65.6,81.9-85.7-.6,3.6-1,7.3-1.5,11.1a408.46,408.46,0,0,0-2,40.9c-18.5,3.1-32.7,7.7-38.7,13.6C116.2,140.3,73,242.2,132,330.8c37.4,56.1,216.6,56.1,254,0,59-88.6,15.9-190.4-15.9-222.2-6-6-20.2-10.5-38.7-13.6a407,407,0,0,0-2-40.9c-.6-3.7-1.1-7.4-1.7-11.1Zm121.6,4.2a15.89,15.89,0,0,1,9,29v67.7l-17.9-13.4V76.1A15.9,15.9,0,0,1,433.5,63,15.71,15.71,0,0,1,449.3,47.2ZM93.4,50.8A22.8,22.8,0,1,1,70.6,73.6,22.66,22.66,0,0,1,93.4,50.8ZM68.3,105.6a40.7,40.7,0,0,0,25.1,8.8,16.2,16.2,0,0,0,2.2-.1c-.8,1.5-1.6,2.9-2.4,4.3L63.6,140.8ZM305.2,108c17.2.1,37,3.7,52.8,16,26.4,20.5,42.7,113.8,33.2,145.6-16.4-61.2-31.7-123-107.1-160a148.74,148.74,0,0,1,21.1-1.6Zm133.9,43.9,33.8,25.4,14.4,71.8-37.9,45.5c10.9-46.2,5.8-97.9-10.3-142.7Zm-360.6,0c-16,44.6-21.1,96.5-10.2,142.6L30.4,249l14.4-71.8ZM407,372.5a26.54,26.54,0,0,1,10.2,6.4,24.18,24.18,0,0,1,7.1,14,6.37,6.37,0,0,1-1.8,2.1,71.9,71.9,0,0,1-12,8.3c-10.8,6.4-26.4,13.6-43.8,20.5A433.42,433.42,0,0,1,299.5,444V416.6c39.2-5.1,79.2-18.2,107.5-44.1Zm-296.4,0c28.2,25.9,68.3,39,107.4,44.1V444a444.61,444.61,0,0,1-67.2-20.2c-17.5-6.8-33.1-14.1-43.8-20.5A76.48,76.48,0,0,1,95,395a15.46,15.46,0,0,1-1.8-2.1,24.47,24.47,0,0,1,7.1-14,26,26,0,0,1,10.3-6.4Zm325.5,34.3,58.8,39.3v43.5H458.2V471.7H440.3v17.9H77.3V471.7H59.4v17.9H22.7V446.1l58.8-39.2a11.37,11.37,0,0,1,1.6,1.5,94.64,94.64,0,0,0,14.8,10.3c12.1,7.1,28.2,14.7,46.4,21.7,36.4,14.1,80.3,26.4,114.4,26.4s77.9-12.3,114.4-26.4c18.2-7.1,34.4-14.7,46.4-21.7a91.93,91.93,0,0,0,14.8-10.3,13.72,13.72,0,0,0,1.8-1.6ZM281.6,418.4v28.8a175.19,175.19,0,0,1-22.8,1.8,158.17,158.17,0,0,1-22.8-1.8V418.4c7.7.6,15.4.8,22.8.8S273.8,418.9,281.6,418.4Z"/></svg>