<svg id="Layer_1" data-name="Layer 1" xmlns="http://www.w3.org/2000/svg" viewBox="0 0 512 512"><defs><style>.cls-1{fill:#323232;}.cls-2{fill:#e69f00;}</style></defs><title>bee</title><path class="cls-1" d="M0,0H512V512H0Z"/><path class="cls-2" d="M239.9,37.1l-3.2,18.5,17.6,3L257.9,38a102.12,102.12,0,0,1,28.8,7L273.4,61.8l14,11,14.7-18.6c9.4,7.9,14.9,18.1,16.9,30.7l-23.3-1.3-1,17.8,12.2.7c-35,30.3-67.5,68.1-97.6,117.2a85.69,85.69,0,0,0-10.1-.7c-2.3,0-4.6.1-6.8.2a75.49,75.49,0,0,0-10.6,1.7c-9.8-68.7,6.5-125,36.8-182.5,7.6-.4,14.7-.9,21.3-.9ZM426,47c5.7,4.4,10.9,8.7,15.7,13.1L424.1,77.2,436.5,90l17.8-17.2a129.47,129.47,0,0,1,20,28.8l-19.2,4.5,4.1,17.4,21.4-5c.5,2,.9,3.9,1.3,5.8a72.36,72.36,0,0,1-2.5,35.8l-21.9-10.7-7.8,16.1,22.5,10.9a108.66,108.66,0,0,1-14.9,20.1c-3,3.3-6.4,6.6-9.9,9.8L433,190.7l-13.1,12.2,13.6,14.6a223.49,223.49,0,0,1-34.9,20.8l-10-19.2-15.8,8.2,9.6,18.4c-9.5,4-19.6,7.6-30.2,10.9l-6.4-18.5-16.9,5.8,6.1,17.7c-10.5,2.7-21.4,5.2-32.7,7.2l-3-18.2-17.6,2.9,3,18.1a527.28,527.28,0,0,1-67.1,5l.2,17.9a560.15,560.15,0,0,0,56-3.3,140.74,140.74,0,0,1,4.1,23.3c94.7-68.8,181.1,28.3,204.3,133.7-92.5,59.4-159,12-206.4-66.7l-16.7,38.3-16.4-7.2L264.8,362c-4-7.5-7.9-15.3-11.6-23.2-7.4,10.7-15.8,18.1-24.5,22.6l-1,31.5-.1,4.1-3.2,2.6-36.7,29.9-11.3-13.9,33.5-27.3.7-21.7c-11,.7-21.9-2.8-31.6-9.9l-.7,25.7-.2,5.9-5.5,2.1-59.5,23-6.4-16.7,53.9-20.8,1-37.9a90.89,90.89,0,0,1-7.6-13.8c-13.7,57.5-82.3,60.4-98.5,7.6C44.3,295.2,74,262.2,105.7,263l9.7-45.1c-27.9,7.4-51.7,22.7-70.6,53.4L29.6,262c24.3-39.5,58.6-58,95.9-64.6l13.1-2.3-2.8,13-12.7,59.1c.6.3,1.2.6,1.9.9h.1a34,34,0,0,1,6.7,2.5,30.58,30.58,0,0,1,11.1,10.3c8.6-27.1,32.9-44.5,58.7-47.1q-5.25,9.15-10.5,18.9l15.7,8.4C268.5,144.9,339.8,88.1,426,47ZM117,284.9h-.9a21.61,21.61,0,0,0-8.4,2.4c-6.1,3-12.5,9.1-16.9,17.4s-5.9,17-5,23.7,3.7,11,7.6,13.1,9.1,2,15.2-1,12.5-9.1,16.9-17.4,5.9-17,5-23.7-3.7-11-7.6-13.1a12.54,12.54,0,0,0-5.9-1.4Z"/></svg>