<svg id="Layer_1" data-name="Layer 1" xmlns="http://www.w3.org/2000/svg" viewBox="0 0 512 512"><defs><style>.cls-1{fill:#323232;}.cls-2{fill:#e3e3e3;}</style></defs><title>bowling</title><path class="cls-1" d="M0,0H512V512H0Z"/><path class="cls-2" d="M452.6,30.7a26.2,26.2,0,0,1,6.6.7c12.1,3,33.2,21,27.3,45.1-4.7,19.1-16.2,41.9-24.1,63.7l-56.6-14c3.2-22.9,3.6-48.5,8.3-67.6C419.1,38.3,439.2,30.8,452.6,30.7ZM173.9,49.2c7.9,0,16.3,2.5,22.7,9.9,10.9,12.3,21.1,31.2,32.3,47l-36.6,32.3c-14.3-13.2-31.7-25.6-42.5-38-13.8-15.6-5-37.2,2.8-44.1,4-3.6,12.3-7,21.3-7.1Zm-44.1,67.7c13.4-.2,32.6,6.3,38.7,25.5,5.9,18.7,7.9,44.2,12.5,66.9l-55.6,17.5c-9.2-21.3-22.1-43.3-28.1-62-7.5-23.7,12.5-43,24.4-46.8a36.88,36.88,0,0,1,8.1-1.1Zm108.2.5,2.1,2.4a44.84,44.84,0,0,0,4.4,4l-36.4,32.1a34.59,34.59,0,0,0-3.4-4.9l-2.1-2.4Zm18.8,15c21.9,12.7,59,28.3,76.5,49.7a134.85,134.85,0,0,1,13.3,20.5c-11.7,21.6-24.7,46.2-26.5,68.7-10.5,1-18.7,3.5-28.2,7.2-14.3-8.8-28.1-18.5-36.8-27.7-19-20-29.8-58.7-39.7-82.1Zm144.6,9.7,54.8,13.5c-.3,1.2-.7,2.5-1,3.7a35.15,35.15,0,0,0-.9,7.1l-56.2-13.9a40.3,40.3,0,0,0,2.5-6.7c.2-1.2.5-2.5.8-3.7Zm-12.5,25,63.8,15.7c2.5,30.2,12.4,77.2,3.3,108.8-3.8,13.4-12.1,29.8-21.4,45.9a111.43,111.43,0,0,0-100.7-66.7c.4-3.1.9-6.1,1.4-8.9,6.8-32.2,37.4-69.2,53.6-94.8ZM184.3,223c.4,1.2.7,2.4,1.1,3.6a32.64,32.64,0,0,0,2.9,6.5l-55.2,17.4a39.87,39.87,0,0,0-1.3-7l-1.2-3.6Zm12,22.3c13.5,18.5,35.5,43.1,49.3,67.7a111.16,111.16,0,0,0,12.1,151.2c-.1.8-.2,2.1-.2,2.1l-23.7,7.5-23.7,7.5s-58.4-66.6-72.9-107.4c-11-31.1-4.1-78.6-3.6-108.8Zm136.4,43.6a93.2,93.2,0,1,1-93.2,93.2,93,93,0,0,1,93.2-93.2ZM51.2,294.7a27.57,27.57,0,0,1,11.9,2.6c14.7,6.7,31.3,19.5,47.7,29.1L90.9,369.9c-18-6.1-38.5-10.3-53.2-17-18.5-8.5-19.3-31.3-15.1-40.6C25.9,305.1,37.5,294.8,51.2,294.7Zm280.1,7.6a19.07,19.07,0,0,0-8,1.6,12.52,12.52,0,0,0-6.8,7.4c-1.9,5.5.7,10.6,3.4,13.5a21.93,21.93,0,0,0,9.8,5.9,22.16,22.16,0,0,0,11.4.7c3.8-.8,8.7-3.1,10.6-8.6s-.7-10.6-3.4-13.5a21.93,21.93,0,0,0-9.8-5.9,25.14,25.14,0,0,0-7.2-1.1Zm44.4,20h-1a12.93,12.93,0,0,0-9.6,4.5c-3.7,4.5-3.1,10.1-1.6,13.8a24.26,24.26,0,0,0,17.3,13.8c3.8.6,9.2.2,13-4.2h0c3.8-4.5,3.2-10.1,1.7-13.8a22.72,22.72,0,0,0-7-9c-3.8-2.9-7.7-5-12.8-5.1Zm-259.6,20a159.69,159.69,0,0,0,2,17.1l-8.6,18.8a31.36,31.36,0,0,0-5-3c-.9-.4-1.9-.8-2.9-1.3ZM335.9,350a19.07,19.07,0,0,0-8,1.6,12.52,12.52,0,0,0-6.8,7.4c-1.9,5.5.7,10.6,3.4,13.5a21.93,21.93,0,0,0,9.8,5.9,22.16,22.16,0,0,0,11.4.7c3.8-.8,8.7-3.1,10.6-8.6s-.7-10.6-3.4-13.5a21.93,21.93,0,0,0-9.8-5.9,25.68,25.68,0,0,0-7.2-1.1ZM122.7,377.1a159.73,159.73,0,0,0,11.5,24.3c-5.6-5.7-10.8-11-15.5-15.4Z"/></svg>