<svg id="Layer_1" data-name="Layer 1" xmlns="http://www.w3.org/2000/svg" viewBox="0 0 512 512"><defs><style>.cls-1{fill:#323232;}.cls-2{fill:#cc58a2;}</style></defs><title>cupcake</title><path class="cls-1" d="M0,0H512V512H0Z"/><path class="cls-2" d="M274.9,17c21.8,14.6,40,27,49,37.2,5.1,5.8,7.3,10.6,7.6,15s-1.1,9.3-6.4,16.2L323.9,87c-19.9-3.8-43-5.6-67.9-5-33.5.8-65.3,5.8-92,13.8a66.55,66.55,0,0,1,5-8.4c6.3-8.9,12.9-14.6,33-13.4h1.2c34.8-2.5,52.2-13.7,60.7-27.9,6-10.5,8-20.8,11-29.1ZM259.8,99.2c35.9-.1,67.2,5.1,88.6,13.5,11.4,4.5,20,9.9,25,15.3s6.4,10.4,5.5,15c-.8,3.9-3.3,8.1-8.4,12.7-27.2-9.9-60-17.5-96.5-21.6-52.7-5.9-102.9-3.5-142.3,5.7a208.34,208.34,0,0,0-23.4,6.7c1.6-3.8,4.9-7.9,10.6-12.4,7.3-5.7,18.1-11.6,31.4-16.7,26.6-10.1,63.1-17.2,102.1-18.1,2.6-.1,5-.1,7.4-.1Zm-46.6,48.6a465.52,465.52,0,0,1,55.7,3.1c50.9,5.7,94.6,18.7,123.4,34.5,14.4,7.9,25.1,16.5,31.1,24.8,5.1,6.9,6.9,13.2,6.2,18.9-4.2-1.5-8.5-3-13-4.4-42.2-13-99.3-20.8-162.4-20.8S134,211.7,91.8,224.7c-1.4.4-2.7.8-4,1.3a72.61,72.61,0,0,1-11.4-11.6c-6.1-8.3-7.5-15.6-5.4-22.3s7.8-13.2,18.4-19.6,25.7-12.1,43.9-16.3c22.6-5.4,50.1-8.4,79.9-8.4Zm41,71.6c61.1,0,116.3,7.7,155.5,19.7,19.6,6,35.1,13.2,45.1,20.5s14.5,14.4,14.5,21.2-4.4,13.9-14.5,21.2c-.1.1-.2.1-.2.2l-62.1-31-68.3,34.6-70.1-34.6-67.4,34.6-70.9-34.6-62,31c-.1-.1-.2-.1-.2-.2-10.1-7.3-14.5-14.4-14.5-21.2s4.4-13.9,14.5-21.2,25.6-14.5,45.1-20.5C137.9,227.1,193.2,219.4,254.2,219.4ZM116,290.5l61,29.7,16.8,134.6,17.2-2.2L194.6,321.2l59.8-30.7L314.2,320,297.6,452.6l17.2,2.2,16.7-133.3,61.2-31,58.4,29.2L386.6,497H122L57.5,319.7,116,290.5Z"/></svg>