<svg id="Layer_1" data-name="Layer 1" xmlns="http://www.w3.org/2000/svg" viewBox="0 0 512 512"><defs><style>.cls-1{fill:#323232;}.cls-2{fill:#89c540;}</style></defs><title>cycling</title><path class="cls-1" d="M0,0H512V512H0Z"/><path class="cls-2" d="M180.1,27a28.15,28.15,0,0,1,11.2,2.5c7.7,3.4,15.7,10.3,21.2,20.1s7.2,20.2,6.1,28.6S213.7,92.6,207.8,96c-5.7,3.2-13,3.3-20.7-.1s-15.8-10.3-21.2-20.1-7.3-20.1-6.2-28.6,5-14.4,10.8-17.7a20.2,20.2,0,0,1,9.6-2.5Zm57.6,43.2c32.4,18,70.1,34.1,122.4,45.5,14.4,3.1,23.3,36.6,12.4,48.5h15.6V183H357.4c-4.5,5.9-9,11.7-13.2,17.8l27.3,54.5a92,92,0,0,1,32.9-6.1,93,93,0,1,1-92.5,102.4H295.4a35.28,35.28,0,0,0,0-18.8H312a93.4,93.4,0,0,1,42.6-69.1l-22.6-45c-6.4,9.9-12.3,20.1-17.7,30.3a185.59,185.59,0,0,0,14.9,13.9c-6.1,9-12.1,17.8-21.7,23.5-2.3-2.1-4.6-4.4-7-6.8a235.75,235.75,0,0,0-11.7,40.7,34.23,34.23,0,0,0-51.4-1.7L153.9,223a321.91,321.91,0,0,1-7.8,36.7,92.81,92.81,0,1,1-42.5-10.4,89.64,89.64,0,0,1,24.9,3.4,277,277,0,0,0,8.7-48.9,61.87,61.87,0,0,1-11.1-21.3l-.1-.2c-8.7,1.3-19.8,6.7-22,14.2l-18.2-4.6c10.9-27.2,40.4-32.4,64.9-27.3,33.8-6.9,58.7-15,61.7-50.1a35,35,0,0,0,4.8-2.3c11.5-6.5,18.3-18.5,20.1-31.5a73.21,73.21,0,0,0,.4-10.5Zm1.4,64.6c-26.4,48.4-57.2,50.4-88.5,54.1,2.5,3.3,5.5,6.7,8.7,10.2h79.3c-2.7-4.7-4.5-8.4-5-10.4-1.1-5.4,11.1-14,25.3-22.6a148.25,148.25,0,0,0,44.3,12.2,146.32,146.32,0,0,0-25.7,20.8H293c3.2-6.8,6.7-13.7,10.1-20.8,2.6-5.3,5.2-10.8,7.8-16.4C290.3,159.1,261.8,153.4,239.1,134.8ZM250.6,218H174.4l79.5,90.8c3.2-23,9.4-43,17.4-62.7C263.7,236.4,256.6,226.6,250.6,218Zm153.8,50.1a72.7,72.7,0,0,0-24.4,4.2l39.7,79.4H330.9a74.15,74.15,0,1,0,73.5-83.6Zm-300.8,0a74,74,0,1,0,37,9.8c-7.6,22.6-17.3,44.6-28.4,68.3l-17.1-7.9c11.2-24,20.8-45.7,28-67.6a74,74,0,0,0-19.5-2.6Zm259.5,12.5a74.24,74.24,0,0,0-32.2,52.2h58.3Zm-100.7,46a15.7,15.7,0,1,1-15.7,15.7A15.54,15.54,0,0,1,262.4,326.6Z"/></svg>