<?xml version="1.0" encoding="utf-8"?>
<!-- Generator: Adobe Illustrator 21.1.0, SVG Export Plug-In . SVG Version: 6.00 Build 0)  -->
<svg version="1.1" id="Layer_1" xmlns="http://www.w3.org/2000/svg" xmlns:xlink="http://www.w3.org/1999/xlink" x="0px" y="0px"
	 viewBox="0 0 512 512" style="enable-background:new 0 0 512 512;" xml:space="preserve">
<style type="text/css">
	.st0{fill:#323232;}
	.st1{fill:#F0F0F0;}
	.st2{fill:#F5A623;}
</style>
<path class="st0" d="M0,0h512v512H0V0z"/>
<g transform="translate(0,0)">
	<g transform="translate(486.4, 25.6) scale(-0.9, 0.9) rotate(0, 256, 256)">
		<path class="st1" d="M135.1,21.8C80.3,22,21,64.6,25.7,171.9c0.2,4.4,1.5,13.7,3.6,26.2c10.7-23.2,26-46.8,41.2-67.5
			c13.2-18,26.5-33.6,37.3-44.5c5.4-5.5,10.1-9.7,14.4-12.7c1.6-1.1,3.1-2.1,4.9-2.9l1.5-4.6l43.3,2.2l1.6,6.4
			c0.2,0.7,0.3,1.4,0.5,2.1c25.5,15.7,44.5,40.6,57.7,69C230,111.2,225,81.5,214,62.4C199.1,36.8,167.9,21.6,135.1,21.8L135.1,21.8z
			"/>
		<path class="st1" d="M376.9,21.8c-32.8-0.1-64,15-78.8,40.5c-11,19.1-16,48.8-17.7,83.2c13.2-28.4,32.2-53.3,57.7-69
			c0.2-0.7,0.3-1.4,0.5-2.1l1.6-6.4l43.3-2.2l1.5,4.6c1.8,0.8,3.3,1.8,4.9,2.9c4.3,3,9,7.2,14.4,12.7c10.8,10.9,24.1,26.5,37.3,44.5
			c15.2,20.8,30.5,44.3,41.2,67.5c2.1-12.5,3.4-21.8,3.6-26.2C491,64.6,431.7,22,376.9,21.8z"/>
		<path class="st2" d="M141.7,84.4c-3.6,12.7-5.8,25.1-5.8,37.3L161,121c1.2-11.8-0.6-23.6-3.5-35.9L141.7,84.4z"/>
		<path class="st2" d="M370.3,84.4l-15.7,0.8c-2.9,12.3-4.7,24.1-3.5,35.9l25.1,0.7C376,109.6,373.8,97.2,370.3,84.4z"/>
		<path class="st2" d="M119.8,99.4c-9.8,10-22.3,24.8-34.8,41.7c-25.5,34.7-50.1,79.3-52.4,107.7c-1.1,13.4,6.2,34.2,15.2,52.2
			c9,17.9,19.1,33.1,22.5,38.3c0.8,1.2,1.3,1.4,2.6,1.5c1.3,0.1,3.3-0.4,4.9-1.7c3.2-2.5,6.3-6.8,0.8-17.3
			c-2-3.8-10.1-15.9-17.2-29.5S47.6,263,48.5,247.1c1.8-28.8,21.2-61.4,39.7-88.2c12.2-17.7,23.3-31.5,29.6-39
			C117.9,113,118.6,106.2,119.8,99.4L119.8,99.4z"/>
		<path class="st2" d="M392.2,99.4c1.1,6.7,1.9,13.5,2,20.4c6.3,7.5,17.4,21.3,29.6,39c18.4,26.8,37.9,59.4,39.7,88.2
			c1,15.8-5.8,31.6-12.9,45.2s-15.2,25.6-17.2,29.5c-5.5,10.5-2.5,14.8,0.8,17.3c1.6,1.3,3.6,1.8,4.9,1.7c1.3-0.1,1.8-0.3,2.6-1.5
			c3.4-5.2,13.5-20.3,22.5-38.3s16.3-38.8,15.2-52.2c-2.3-28.4-26.9-72.9-52.4-107.7C414.6,124.2,402.1,109.4,392.2,99.4L392.2,99.4
			z"/>
		<g>
			<path class="st2" d="M178.9,102.8c0.6,6,0.7,12.2,0.2,18.6c32.1,37,43,78.7,43.8,121.1c0.3,15.8-5.4,32.7-11.5,47.6
				c-6.1,14.8-12.9,27.4-15.5,32.2c-2.8,5.2-2.6,7.9-2.3,9s0.8,1.7,2.6,2.4c3.5,1.5,10.4-0.4,11.4-1.7c1.7-2.3,10.9-18,18.1-35.5
				c7.1-17.5,12.9-38,12-51.6C234.6,194,214.7,134.8,178.9,102.8z"/>
		</g>
		<g>
			<path class="st2" d="M333.1,102.8c-35.9,32.1-55.7,91.3-58.8,141.8c-0.8,13.6,4.9,34.1,12,51.6c7.2,17.5,16.3,33.2,18.1,35.5
				c1,1.3,7.9,3.1,11.4,1.7c1.8-0.7,2.3-1.3,2.6-2.4c0.3-1.1,0.5-3.8-2.3-9c-2.6-4.8-9.4-17.3-15.5-32.2
				c-6.1-14.8-11.8-31.8-11.5-47.6c0.8-42.4,11.7-84,43.8-121C332.4,115,332.5,108.8,333.1,102.8z"/>
		</g>
		<g>
			<path class="st1" d="M170.4,138.9l-45.8,1.2c-6.2,7.8-13.8,17.7-21.5,29c-17.8,25.8-35.3,58.2-36.6,79.1
				c-0.6,9.4,4.4,23.3,10.9,35.7c6.5,12.4,13.7,22.8,17.2,29.4c8.4,16.1,4.2,32.2-5.6,39.9c-4.9,3.8-10.9,5.9-17.1,5.5
				c-4.4-0.3-8.9-2-12.5-5.1c8.2,40.2,15.5,75.3,18.4,89.4c11.2,53.5,172.5,86.7,149.6-42.8c-2.6-14.8-2.7-36.8-1.7-62.8
				c-1.3,2.1-2.5,3.9-3.6,5.3c-8,10.4-21.5,12-32.6,7.4c-5.6-2.3-11-7.1-13-14s-0.5-14.6,3.7-22.5c2.6-4.9,9-16.8,14.7-30.5
				c5.7-13.8,10.4-29.6,10.1-40.4C204.2,205.3,195.8,170.8,170.4,138.9L170.4,138.9z"/>
		</g>
		<g>
			<path class="st1" d="M341.6,138.9c-25.4,31.9-33.8,66.4-34.5,103.8c-0.2,10.8,4.5,26.6,10.1,40.4c5.7,13.8,12.1,25.6,14.7,30.5
				c4.2,7.9,5.7,15.6,3.7,22.5s-7.4,11.7-13,14c-11.2,4.6-24.6,3-32.6-7.4c-1.1-1.4-2.3-3.2-3.6-5.3c1,26,0.9,48-1.7,62.8
				c-22.9,129.6,138.4,96.3,149.6,42.8c3-14.1,10.2-49.2,18.4-89.4c-3.6,3.1-8.2,4.8-12.5,5.1c-6.2,0.4-12.2-1.6-17.1-5.5
				c-9.8-7.7-14.1-23.8-5.6-39.9c3.5-6.7,10.7-17,17.2-29.4s11.5-26.4,10.9-35.7c-1.3-20.9-18.8-53.3-36.6-79.1
				c-7.7-11.2-15.3-21.2-21.5-29L341.6,138.9z"/>
		</g>
	</g>
</g>
</svg>
