<svg id="Layer_1" data-name="Layer 1" xmlns="http://www.w3.org/2000/svg" viewBox="0 0 512 512"><defs><style>.cls-1{fill:#323232;}.cls-2{fill:#ffcb21;}</style></defs><title>lemon</title><path class="cls-1" d="M0,0H512V512H0Z"/><path class="cls-2" d="M377.8,68.5c38.4,31.4,70.9,80.4,89.5,139.7s19.6,118.1,5.9,165.8-42.7,84.7-84.2,97.7c-101.3,23.7-216.4,7.8-291.8-27.2-23.2-1-65.9,3.2-71.3-6.5-3.8-6.8,4.4-70.8,24-84.9C72.7,187.8,94.5,70.2,253,36,293.9,24.6,347.4,44.7,377.8,68.5Zm-93-20.1a89.53,89.53,0,0,0-26.7,4c-34.8,10.8-60.2,42.2-72.7,86s-11.8,99.5,5.8,155.9S239.9,397,275.1,425.8s74,40.2,108.8,29.4,60.2-42.2,72.8-86,11.8-99.5-5.8-155.9S402.2,110.6,367,81.8c-26.5-21.6-55-33.5-82.2-33.4Zm67.3,51.1L323.3,236,275.4,67.2c26.6.5,61.7,13.3,76.7,32.3ZM252.3,74.8c4-.7,54.5,164.1,54.5,164.1L201.2,161.4C201.9,141.8,227.4,82.4,252.3,74.8Zm119.6,44.5c23.4,18.1,41.9,55.7,49.3,82.5L339.4,242ZM195.7,186.8l105.8,70.9-91.3,24.4C203.2,255.5,195.3,212.1,195.7,186.8Zm233.6,36.9c9,24.5,15.6,48.6,16.1,72.1l-102-34.2ZM304.1,273.2l-62.9,76.4c-14.7-16.2-21.6-33.1-27.3-48.7Zm38.3,4.9,101.3,43.2c.6,27.8-8.4,55.9-20.3,76.9Zm-26.2,5.3-2.7,144.3c-34.8-14.4-54-42.4-64.9-59.8Zm15.8,2.4,79,133.3c-17.8,16.6-55.1,21.6-79.8,16.3Z"/></svg>