<svg id="Layer_1" data-name="Layer 1" xmlns="http://www.w3.org/2000/svg" viewBox="0 0 512 512"><defs><style>.cls-1{fill:#323232;}.cls-2{fill:#f77c00;}</style></defs><title>owl</title><path class="cls-1" d="M0,0H512V512H0Z"/><path class="cls-2" d="M440,20.4l4.8,17.9a272.34,272.34,0,0,0-64.9,26.5c21.1,15.6,35,42.3,35,72.7a95,95,0,0,1-7.7,37.6c21.6,20.2,34.7,49,34.7,86.8,0,70.1-42.5,130.6-103.9,159.6l30.5,69.8H348.3L321,428.7c-3,1.1-6,2-9.1,3a94.07,94.07,0,0,1-10.8,7.4L314,491.4H294.9l-10.8-44a90.5,90.5,0,0,1-20.7,5v39H244.8v-39a91.54,91.54,0,0,1-23.1-6l-11.1,45H191.5l13.3-54c-3.3-2.2-6.7-4.6-10-7.3-3.2-1-6.4-2.2-9.4-3.4l-28.2,64.7H137l31.5-72.2C109.7,389.3,69.6,330.1,69.6,262c0-36.8,12.4-65,33.1-85.2a94.14,94.14,0,0,1-8.4-39.3c0-30.2,13.8-56.9,34.7-72.5A264.65,264.65,0,0,0,64.2,38.4L69,20.5a283.21,283.21,0,0,1,71.1,29.7c33.8-18.7,76.5-27.9,119.2-27.9,40.6.1,81,8.5,113.7,25.2a295.33,295.33,0,0,1,67-27.1ZM259.4,41.6c-36.1,0-72.3,6.7-101.3,20.1,44.8,31.6,77.3,75.6,96.4,126.8,19.1-51.7,52.2-97,99.7-129.3C326.7,47.6,293,41.6,259.4,41.6Zm82.9,67.9a35,35,0,1,0,35,35,35.17,35.17,0,0,0-35-35Zm-177.9,0a35,35,0,1,0,35,35,35.17,35.17,0,0,0-35-35Zm109.4,80a279.38,279.38,0,0,0-10.3,31.7l-9,33.7-9-33.7a295.64,295.64,0,0,0-10.3-31.4c-14.2,21.2-37,35.1-62.7,35.1a72,72,0,0,1-39.3-11.8c4,70.2,18.8,123.7,39,160,23.7,42.8,53.9,61.7,82.9,61.3s59.3-20.5,83.1-63.6c20.2-36.7,35.1-89.7,39-158.7a72.06,72.06,0,0,1-40.6,12.7c-25.6-.1-48.5-14-62.8-35.3Zm124.3,2.1c-.5.6-.8,1.2-1.3,1.8-2.1,80.7-18.2,142.8-42.3,186.3A192.36,192.36,0,0,1,343,398.1c48.3-28,80.5-78.6,80.5-136.3,0-31.7-9.2-53.9-25.4-70.2ZM112.2,193c-15.4,16.2-24,38.1-24,68.9,0,55.9,30.3,105.2,76.2,133.7-2.9-4.3-5.6-8.8-8.2-13.6-23.9-43.1-40-105.2-42.3-186.9a15.66,15.66,0,0,1-1.7-2.1Zm235.5,58.6a45.69,45.69,0,0,1,6,23c0,19.9-12,35.6-26.6,35.6-12.4,0-23.2-11.5-26-27.3a24.39,24.39,0,0,0,16.4,6.3c15.8,0,29.1-16.4,30.2-37.6ZM163.3,254c1,21.2,14.4,37.7,30.2,37.7a25.15,25.15,0,0,0,16.4-6.3c-2.9,15.7-13.6,27.3-26,27.3-14.6,0-26-15.7-26-35.6,0-8.7,1.7-16.9,5.4-23.1Zm68.2,28.7c3.5,13,14.2,23,24.3,23,9.9,0,20.4-10,23.7-22.4.8,3.3,1.8,6.9,1.8,10.7,0,19-11.5,34.1-25.5,34.1S230.3,313,230.3,294a47.16,47.16,0,0,1,1.2-11.3Zm-34.7,66.1c3.4,16.4,14,28.7,27.3,28.7,8.1,0,15.6-4.5,20.9-12-.7,18.2-11.9,32.8-25.5,32.8-14,0-25.5-15.7-25.5-34.8a41.77,41.77,0,0,1,2.8-14.7Zm114.6,1.4a44.76,44.76,0,0,1,1.8,13.4c0,19-11.5,34.8-25.5,34.8-13.5,0-24.2-14.6-24.9-32.8,5.3,7.5,12.7,12,20.9,12,12.7.1,24-11.6,27.7-27.4Z"/></svg>