<svg id="Layer_1" data-name="Layer 1" xmlns="http://www.w3.org/2000/svg" viewBox="0 0 512 512"><defs><style>.cls-1{fill:#323232;}.cls-2{fill:#56b4e9;}</style></defs><title>pill</title><path class="cls-1" d="M0,0H512V512H0Z"/><path class="cls-2" d="M119,58.1h3.7a110.19,110.19,0,0,1,52.9,15.1c160.9,94,110.2,63.6,274.6,158.5l5,2.9v.3c49.4,32.2,65.7,98,35.9,149.6-30.8,53.4-99.6,72-152.9,40.9-164-95.7-113-65.4-274.5-158.5A111.89,111.89,0,0,1,119,58.1Zm-1.5,17.8a79.71,79.71,0,0,0-68.3,39.9c-2,3.4-3,7.5-4.4,11.1a80.7,80.7,0,0,1,100.7-16.2c69.9,40.5,90.6,52.9,114.5,67-24.3,21-48,56.5-58.8,88.8,61.4,35.5,55.9,33.2,161.2,94.3a80.83,80.83,0,0,0,100.7-16.2c-1.4,3.6-2.5,7.6-4.4,11.1-22.1,38.5-72,51.2-110.5,28.9-100.8-58.4-99.5-58.3-152.9-89.1-.5,10.4,1.1,19.7,5.5,27,31.2,17.9,57.7,33.2,147.7,85.7,43.7,25.5,99.8,10.3,125.2-33.6a91.51,91.51,0,0,0-33.5-125.2l-5.1-2.9c-79.3-45.7-106.8-61.4-136.3-78.2-40.1-23.3-47.8-28.2-139-81.1a80.78,80.78,0,0,0-42.3-11.3Z"/></svg>