<svg id="Layer_1" data-name="Layer 1" xmlns="http://www.w3.org/2000/svg" viewBox="0 0 512 512"><defs><style>.cls-1{fill:#323232;}.cls-2{fill:#bf9c7c;}</style></defs><title>ram</title><path class="cls-1" d="M0,0H512V512H0Z"/><path class="cls-2" d="M311.1,17.6c28,27.3,39.2,52.6,41.2,76.2,1.7,21.5-4.3,42.2-14.8,61.7a65.87,65.87,0,0,0-35.2.9c-4.5-19.3-10.7-39.1-24.6-56.8C263.1,81.3,240.3,66,204.1,55.5c22.4-17.2,48.8-28.6,77-34.1A216,216,0,0,1,311.1,17.6Zm25.4.5c32.1,2.8,59.3,14.4,81.4,32.3a160,160,0,0,1,41.2,51l-1.4-.2c-6.4,45.7-32.1,71.4-76.6,84.8a78.84,78.84,0,0,0-26.7-23.8c10.9-21.2,17.8-44.7,15.8-69.9-1.8-24-12.1-49.1-33.7-74.2ZM187.5,70c40.6,9.8,62.4,24.3,75.6,40.9,12.2,15.5,17.4,33.3,21.9,53a55,55,0,0,0-17.4,15,62,62,0,0,0-8.8,17.4c-33.9-15.9-77.3-33.7-119.7-30.6C146.5,125.9,163.7,93.9,187.5,70Zm283,57a226.44,226.44,0,0,1,10.7,44c4.6,32.4.3,68.5-11.1,101.4-30.2,2.9-54.5-2.6-73.8-22.2a158.68,158.68,0,0,0,.8-17,83.45,83.45,0,0,0-6.5-31.1c39-13.1,67.4-37.8,79.9-75.1ZM147.8,183.7h2.6l6.7.3c2.3.2,4.3.4,6.5.6,33.8,3.9,69.3,19.2,97.5,32.7l7.3,3.5a41.21,41.21,0,0,1,3.1,2.8,147.38,147.38,0,0,1,55.9-25.1c23.4-4.8,16.6,34-1.5,49.7-19.1,16.7-37.4,16.5-37.4,16.5,11.1,20.6,20.6,38.8,29.2,55.4-23.3,5.8-54.7,4.8-96.3-7.5L209.5,309l.2,12.4c.4,27.9,26.3,54.5,62.8,69.3a153.23,153.23,0,0,0,87.7,7.6c18.5,30.4,40.5,61,75.3,100.8H142.2c.1-10.5-.2-21.1-.6-32.1l-11,5.4,8.6-29.5-15.8,4.2,17.3-56.2a207.18,207.18,0,0,1,5.7-39c-44.5,10.5-100,24.6-127.8,17.6C10.5,367.4-2.8,341.5.7,325c5.4-26.3,40.9-36.8,59.2-53.2,0,0,12.6-29.4,23-43.9,11.9-16.5,33.2-34.6,42.3-42.1l4.9-.8a167.36,167.36,0,0,1,17.7-1.3Zm-3,41.4c-20.6,3.5-43.9,9.8-40,39.2C129.8,262.5,154.3,260.8,144.8,225.1ZM392.2,271c19.9,15.5,44.2,20.9,70.3,19.9-14.5,32-36.1,59-62.9,73.9-18.6-11.1-30.8-33.4-26.4-57.3,9-10.5,15.2-23.2,19-36.5Zm-37.9,53.4a74,74,0,0,0,26.3,49.2c-24.2,9.3-47.6,11.5-68.5,8.8-9-15.9-8.3-28.7-2.7-42C327.1,338,342,332.4,354.3,324.4Zm-122.5,9.8c21.5,5.3,40.9,7.7,58,7.5a66.22,66.22,0,0,0,.5,36.1q-5.55-1.8-10.8-3.9C255.6,364.3,238.8,348.2,231.8,334.2Z"/></svg>