<?xml version="1.0" encoding="utf-8"?>
<!-- Generator: Adobe Illustrator 21.1.0, SVG Export Plug-In . SVG Version: 6.00 Build 0)  -->
<svg version="1.1" id="Layer_1" xmlns="http://www.w3.org/2000/svg" xmlns:xlink="http://www.w3.org/1999/xlink" x="0px" y="0px"
	 viewBox="0 0 42 42" style="enable-background:new 0 0 42 42;" xml:space="preserve">
<style type="text/css">
	.st0{fill:#F5A623;}
</style>
<g transform="translate(0,0)">
	<g transform="translate(486.4, 25.6) scale(-0.9, 0.9) rotate(0, 256, 256)">
		<path class="st0" d="M517-27.3c-0.9,0-6.3,14.5-6.8,15c-0.7,0.4-16.1,1.1-16.4,2s11.9,10.5,12.2,11.2c0.3,0.9-3.9,15.6-3.2,16.2
			c0.7,0.4,13.5-8.1,14.4-8.1c0.9,0,13.7,8.5,14.4,8.1c0.7-0.4-3.5-15.4-3.2-16.2c0.3-0.9,12.3-10.5,12.2-11.2
			c-0.3-0.9-15.6-1.4-16.4-2C523.1-12.7,517.7-27.3,517-27.3z"/>
	</g>
</g>
</svg>
