<?xml version="1.0" encoding="utf-8"?>
<!-- Generator: Adobe Illustrator 21.1.0, SVG Export Plug-In . SVG Version: 6.00 Build 0)  -->
<svg version="1.1" id="Layer_1" xmlns="http://www.w3.org/2000/svg" xmlns:xlink="http://www.w3.org/1999/xlink" x="0px" y="0px"
	 viewBox="0 0 512 512" style="enable-background:new 0 0 512 512;" xml:space="preserve">
<style type="text/css">
	.st0{fill:#323232;}
	.st1{fill:#417DAA;}
</style>
<title>rhino</title>
<path class="st0" d="M0,0h512v512H0V0z"/>
<path class="st1" d="M62.3,16c9.8,49.7,18,109.5,32.2,163.1c8.7,32.9,19.6,63.5,35.1,88.2c13.4,21.5,30.6,38.7,52.5,48
	c-12.5,26.9-44.8,49.3-79.3,55.8c-4.3-7.6-8.1-15.4-11.5-23.4C80,321.5,68.5,285.3,60.2,244.5C45.7,173.5,41.2,88,62.3,16z
	 M512,22.4V496h-41.1c-8-9.3-14-23.4-18.2-47.9c-37.9,0-57.7-4.6-69.3-11.4c29.4-26.5,53.5-61.2,71.2-105.3
	c-12.9,16.5-27.6,31.5-43.8,44.7C366,445.5,299,477.9,214.7,486.5c-0.5-0.8-1-1.4-1.8-2.6c-1.3-2.2-2.8-4.3-4.4-6.3
	c-1.9-2.2-5.2-5.9-11.3-5.5c-5.9,0.4-8.5,3.6-10.6,5.9c-1.8,2.1-3.4,4.3-4.9,6.6c-0.9,1.4-1.9,2.8-3,4.1c-34.6,0.7-62-3.5-79.4-12.6
	c-17.6-9.2-25.9-21.8-25.4-44c1.6-15.4,11.8-28.8,28-41.7c42.3-6.5,82.2-32.4,97.9-68.7c11.5-1.3,21.3-8.7,28.5-17.5
	c8.3-10.5,14.1-22.7,17-35.8c11.1-24.7,34.3-65,60.6-99c13.2-17,27.2-32.5,40.5-43.6c3.4-2.9,7-5.5,10.7-8l15.5,7.8
	c9.2-18.3,13.3-39.8,17.4-58.3c3-13.4,6.4-25.1,10-32.5c19.6,15.1,24.4,30.1,23.8,45.8c-0.7,17.6-9.7,36.7-18,53.3l16.8,8.4
	c1.4-2.8,2.8-5.7,4.3-8.7c11.5,13.8,21.1,32.3,27.4,52.9c6.8,21.9,9.5,44.8,8,67.7l19.2-21.3c-0.9-17.6-4-35.1-9.2-52
	c-7.6-24.7-19.5-47.1-34.9-63.8c-0.7-0.8-1.5-1.6-2.2-2.3c3.9-10.4,6.9-21.6,7.4-33.4c0.1-3.3,0-6.7-0.4-10
	C464.1,50.5,486.7,32.1,512,22.4z M328.5,45.1c3.6,7.4,7,19.1,10,32.5c1.8,8.3,3.7,17.1,6.1,26c-3.4,2.4-6.8,5-10.1,7.8
	c-6.6,5.6-13,11.5-18.9,17.8c-5.7-12.6-10.4-25.7-10.8-38.3C304.1,75.2,308.9,60.2,328.5,45.1L328.5,45.1z M165.1,193.8
	c5.8,15.8,12.4,32.5,22.5,47.7c7.9,11.9,18,22.5,31.2,29c1.9,0.9,3.8,1.7,5.7,2.4c-2.5,7-6.1,13.5-10.7,19.4
	c-1.2,1.5-2.5,2.9-3.9,4.3l-4.6,3.7c-1.3,0.8-2.7,1.5-4.1,2.1l-3.3-1c-11.8-3.5-22.7-9.8-31.6-18.3c-1.1-3.7-2.1-7.6-3-11.7
	C158.6,249.8,157.6,223.3,165.1,193.8L165.1,193.8z M295.3,317.2c-6.3,0.2-12.6,1.4-18.5,3.6c-13.4,4.7-25.4,12.8-34.8,20l11.3,14.9
	l2.5-1.9c3.1,9.3,13.2,14.3,22.4,11.2c7.2-2.4,12.1-9.2,12.1-16.8c0-4-1.4-7.8-3.9-10.9c8.7-2.5,16.1-2.2,22.7,2.1l10.3-15.7
	c-6.4-4.1-13.7-6.4-21.3-6.6C297.2,317.1,296.2,317.1,295.3,317.2L295.3,317.2z M118,421.9c-1.6,0-3.1,0.1-4.7,0.3l2.4,18.6
	c9.6-1.2,16.6,2.7,24.7,13.1l14.8-11.5c-9.1-11.8-21.5-20-35.7-20.5H118z"/>
</svg>
