<?xml version="1.0" encoding="utf-8"?>
<!-- Generator: Adobe Illustrator 21.1.0, SVG Export Plug-In . SVG Version: 6.00 Build 0)  -->
<svg version="1.1" id="Layer_1" xmlns="http://www.w3.org/2000/svg" xmlns:xlink="http://www.w3.org/1999/xlink" x="0px" y="0px"
	 viewBox="0 0 512 512" style="enable-background:new 0 0 512 512;" xml:space="preserve">
<style type="text/css">
	.st0{fill:#323232;}
	.st1{fill:#7864AD;}
</style>
<title>xylophone</title>
<path class="st0" d="M0,0h512v512H0V0z"/>
<path class="st1" d="M489,55.3v271.2h-78.3V55.3H489z M392.6,71.3v239h-78.3v-239H392.6z M449.8,78.4c-8.9,0-16.1,7.2-16.1,16.1
	s7.2,16.1,16.1,16.1c8.9,0,16.1-7.2,16.1-16.1C465.9,85.6,458.7,78.4,449.8,78.4C449.8,78.4,449.8,78.4,449.8,78.4L449.8,78.4z
	 M296.2,87.4v206.9h-78.3V87.4H296.2z M353.4,94.4c-8.9,0-16.1,7.2-16.1,16.1s7.2,16.1,16.1,16.1c8.9,0,16.1-7.2,16.1-16.1
	C369.5,101.6,362.3,94.4,353.4,94.4C353.4,94.4,353.4,94.4,353.4,94.4L353.4,94.4z M199.8,103.5v174.8h-78.3V103.5H199.8z
	 M257,110.5c-8.9,0-16.1,7.2-16.1,16.1s7.2,16.1,16.1,16.1c8.9,0,16.1-7.2,16.1-16.1C273.1,117.7,265.9,110.5,257,110.5
	C257,110.5,257,110.5,257,110.5L257,110.5z M103.3,119.5v142.6H25V119.5H103.3z M160.6,126.6c-8.9,0-16.1,7.2-16.1,16.1
	c0,8.9,7.2,16.1,16.1,16.1s16.1-7.2,16.1-16.1C176.7,133.8,169.5,126.6,160.6,126.6C160.6,126.6,160.6,126.6,160.6,126.6
	L160.6,126.6z M64.2,142.6c-8.9,0-16.1,7.2-16.1,16.1s7.2,16.1,16.1,16.1s16.1-7.2,16.1-16.1C80.3,149.8,73.1,142.6,64.2,142.6
	C64.2,142.6,64.2,142.6,64.2,142.6L64.2,142.6z M64.2,206.9c-8.9,0-16.1,7.2-16.1,16.1c0,8.9,7.2,16.1,16.1,16.1s16.1-7.2,16.1-16.1
	c0,0,0,0,0,0C80.3,214.1,73.1,206.9,64.2,206.9C64.2,206.9,64.2,206.9,64.2,206.9L64.2,206.9z M160.6,223c-8.9,0-16.1,7.2-16.1,16.1
	s7.2,16.1,16.1,16.1c8.9,0,16.1-7.2,16.1-16.1C176.7,230.2,169.5,223,160.6,223C160.6,223,160.6,223,160.6,223z M257,239.1
	c-8.9,0-16.1,7.2-16.1,16.1s7.2,16.1,16.1,16.1c8.9,0,16.1-7.2,16.1-16.1C273.1,246.3,265.9,239.1,257,239.1
	C257,239.1,257,239.1,257,239.1z M353.4,255.1c-8.9,0-16.1,7.2-16.1,16.1s7.2,16.1,16.1,16.1s16.1-7.2,16.1-16.1
	C369.5,262.3,362.3,255.1,353.4,255.1C353.4,255.1,353.4,255.1,353.4,255.1z M449.8,271.2c-8.9,0-16.1,7.2-16.1,16.1
	s7.2,16.1,16.1,16.1s16.1-7.2,16.1-16.1C465.9,278.4,458.7,271.2,449.8,271.2C449.8,271.2,449.8,271.2,449.8,271.2z M96.3,328.4
	c12.8,0,23.1,10.3,23.1,23.1s-10.3,23.1-23.1,23.1s-23.1-10.3-23.1-23.1c-0.1-12.7,10.1-23,22.7-23.1
	C96.1,328.4,96.2,328.4,96.3,328.4z M137.5,352.5l162.9,40.7l148.3-18.5l2.2,17.9l-102,12.7l135.2,33.8l-4.4,17.5l-180.5-45.1
	l-194.1,24.3c0.6-6.1-0.2-12.2-2.3-17.9l147.8-18.5L133,370C135.8,364.6,137.3,358.6,137.5,352.5z M64.2,408.8
	c12.8,0,23.1,10.3,23.1,23.1S77,455,64.2,455s-23.1-10.3-23.1-23.1c-0.1-12.7,10.1-23,22.7-23.1C64,408.8,64.1,408.8,64.2,408.8z"/>
</svg>
